<svg xmlns="http://www.w3.org/2000/svg" width="1920.44" height="1475.759" viewBox="0 0 1920.44 1475.759">
  <g id="Group_50" data-name="Group 50" transform="translate(0.439 -3368.241)">
    <rect id="Rectangle_75" data-name="Rectangle 75" width="1920" height="1395" rx="78" transform="translate(0 3449)" fill="#def6fc"/>
    <path id="Path_149" data-name="Path 149" d="M1920.44,1440a628.524,628.524,0,0,1-95.584,37.525c-51.7,15.531-86.807,18.669-243.177,26.067-156.111,7.386-216.81,8.787-253.017,9.459-43.175.8-67.842.874-103.057,1.184-161.278,1.428-269.17,5.474-327.072,6.817-126.282,2.93-671.872,8.249-809.654,28.519-73.036,10.744-88.55,34.086-88.556,36v7.883c0,20.794-.728,26.5,0,27.852,11.687,21.722,1145.989-35.38,1740.193-33.107,83.258.318,149.332,1.842,179.923,2.627" transform="translate(-0.439 1928.241)" fill="#def6fc"/>
  </g>
</svg>
