<svg xmlns="http://www.w3.org/2000/svg" width="407.52" height="314.584" viewBox="0 0 407.52 314.584">
  <g id="Group_24" data-name="Group 24" transform="translate(-782.495 -1694.501)">
    <g id="Group_23" data-name="Group 23" transform="translate(784 1696)">
      <ellipse id="Ellipse_10" data-name="Ellipse 10" cx="183.568" cy="40.156" rx="183.568" ry="40.156" transform="translate(38.878 232.774)" fill="#f9f4a3"/>
      <rect id="Rectangle_70" data-name="Rectangle 70" width="39.251" height="23.068" rx="4.566" transform="translate(222.36 195.671) rotate(137.774)" fill="#f7e894" stroke="#1d1d1b" stroke-miterlimit="10" stroke-width="3"/>
      <path id="Path_139" data-name="Path 139" d="M370.859,2335.865c.275-2.988,2.926-5.962,8.226-11.912a47.432,47.432,0,0,1,10.026-8.866c2.961-1.9,4.442-2.854,6.385-2.963,3.324-.188,6.193,2.17,11.8,6.893,6.112,5.151,9.168,7.727,9.4,7.95,5.263,5.043,2.471,1.882,22.286,19.146,10.889,9.487,16.333,14.231,20.222,17.972,5.832,5.611,10.742,10.749,16.97,17.274,1.362,1.426,1.434,1.511,11.885,12.648,7.5,7.99,10.867,11.576,15.933,17.008,9.971,10.693,11.248,12.164,12.4,13.517,5.458,6.423,9.477,11.874,11.955,15.249,5.135,6.991,5.144,7.6,10.57,14.893,1.62,2.177,4.964,6.589,9.461,12.025,3.908,4.723,5.862,7.084,7.16,8.242,3.22,2.866,5.511,3.972,13.273,9.921,2.928,2.245,4.651,3.657,4.714,5.707.04,1.278-.582,2.333-3.137,5.4-3.9,4.687-6.2,6.9-6.2,6.9-3.7,3.527-6.164,5.753-8.722,8.1-3.484,3.192-7.049,6.3-10.551,9.47-5.421,4.913-6.186,5.712-7.705,5.64-.905-.043-2.806-.43-9.092-9.214-2.9-4.052-3.417-5.258-5.068-7.576-2.047-2.874-5.327-5.795-11.8-11.519-14.095-12.456-14.684-12.975-16.436-14.59-3.015-2.783-4.329-4.068-7.273-6.629-4.289-3.731-6.445-5.3-9.746-8.038-4.869-4.035-8.218-7.275-11.808-10.748-6.309-6.1-10.693-11.1-19.2-20.835-2.7-3.092-6.252-7.26-13.34-15.6-4.2-4.94-6.961-8.2-10.757-12.727-5.14-6.133-7.763-9.264-11.271-13.6-5.373-6.633-9.3-11.728-13.073-16.643-2.556-3.325-1-1.348-12.381-16.466-2.778-3.691-5.56-7.382-8.937-12.628C370.864,2339.7,370.719,2337.389,370.859,2335.865Z" transform="translate(-359.682 -2312.112)" fill="#5484aa" stroke="#1d1d1b" stroke-miterlimit="10" stroke-width="3"/>
      <path id="Path_140" data-name="Path 140" d="M365.41,2347.713a25.17,25.17,0,0,1-3.5-7.912,23.712,23.712,0,0,1,.786-14.562,23.251,23.251,0,0,1,6.822-9.321" transform="translate(-361.114 -2311.551)" fill="none" stroke="#1d1d1b" stroke-miterlimit="10" stroke-width="3"/>
      <path id="Path_141" data-name="Path 141" d="M535.534,2507.633c1.654,2.3,2.174,3.5,5.08,7.524.654.905,1.248,1.7,1.812,2.435,2.914-2.593,5.851-5.162,8.738-7.786,2.55-2.317,5.01-4.52,8.7-8.01,0,0,2.291-2.188,6.182-6.829,2.548-3.039,3.167-4.084,3.125-5.352-.068-2.032-1.793-3.437-4.723-5.67-7.771-5.917-10.063-7.018-13.287-9.869-1.3-1.149-3.258-3.5-7.174-8.19-4.505-5.4-7.857-9.785-9.48-11.947-5.438-7.242-5.449-7.85-10.6-14.8-2.484-3.352-6.512-8.769-11.98-15.15-1.153-1.346-2.432-2.807-12.421-13.435-5.073-5.4-8.449-8.963-15.959-16.9-10.468-11.069-10.541-11.153-11.9-12.57-6.239-6.487-11.156-11.593-17-17.171-3.894-3.719-9.346-8.435-20.248-17.868-19.84-17.167-17.044-14.024-22.315-19.039-.233-.221-3.293-2.782-9.411-7.9-1.323-1.107-2.483-2.071-3.543-2.914a50.869,50.869,0,0,0-7.869,7.312c-5.284,5.89-7.928,8.836-8.2,11.8-.137,1.511.014,3.8,6.182,13.3,3.387,5.211,6.175,8.877,8.959,12.544,11.4,15.021,9.846,13.055,12.408,16.358,3.786,4.883,7.717,9.946,13.1,16.536,3.516,4.306,6.145,7.416,11.294,13.511,3.8,4.5,6.574,7.737,10.778,12.646,7.1,8.293,10.658,12.435,13.365,15.506,8.527,9.679,12.919,14.641,19.238,20.709,3.594,3.451,6.948,6.673,11.824,10.685,3.3,2.719,5.463,4.284,9.757,7.993,2.947,2.546,4.263,3.824,7.283,6.59,1.754,1.606,2.345,2.123,16.457,14.508C530.2,2501.872,533.482,2504.776,535.534,2507.633Z" transform="translate(-357.884 -2311.512)" fill="#6baee0"/>
      <path id="Path_142" data-name="Path 142" d="M552.7,2487.285l42.2,18.215,13.148,59.474-57.477-14.757-16.893-44.891Z" transform="translate(-335.694 -2286.309)" fill="#d3aa4d" stroke="#1d1d1b" stroke-miterlimit="10" stroke-width="4"/>
      <path id="Path_143" data-name="Path 143" d="M559.531,2492.5l-17.076,15.308,17.2,41.954,45.922,11.79L591.843,2506.1Z" transform="translate(-334.402 -2285.541)" fill="#f6ed85"/>
      <line id="Line_7" data-name="Line 7" x1="26.099" y1="26.85" transform="translate(245.965 250.503)" fill="none" stroke="#1d1d1b" stroke-miterlimit="10" stroke-width="3"/>
      <circle id="Ellipse_11" data-name="Ellipse 11" cx="10.185" cy="10.185" r="10.185" transform="translate(228.127 232.265)" fill="#fffbe0" stroke="#1d1d1b" stroke-miterlimit="10" stroke-width="3"/>
      <rect id="Rectangle_71" data-name="Rectangle 71" width="30.359" height="12.976" transform="translate(57.713 17.491) rotate(136.845)" fill="#fff"/>
      <line id="Line_8" data-name="Line 8" x1="34.709" y2="32.199" transform="translate(26.862 16.822)" fill="none" stroke="#1d1d1b" stroke-miterlimit="10" stroke-width="3"/>
      <line id="Line_9" data-name="Line 9" x1="32.68" y2="30.186" transform="translate(15.883 8.206)" fill="none" stroke="#1d1d1b" stroke-miterlimit="10" stroke-width="3"/>
      <line id="Line_10" data-name="Line 10" x1="42.804" y2="39.847" transform="translate(115.485 114.301)" fill="none" stroke="#1d1d1b" stroke-miterlimit="10" stroke-width="3"/>
      <line id="Line_11" data-name="Line 11" x1="39.961" y2="37.917" transform="translate(127.852 126.513)" fill="none" stroke="#1d1d1b" stroke-miterlimit="10" stroke-width="3"/>
      <rect id="Rectangle_72" data-name="Rectangle 72" width="13.464" height="1.54" rx="0.53" transform="matrix(0.577, 0.816, -0.816, 0.577, 176.448, 117.277)" fill="none" stroke="#1d1d1b" stroke-miterlimit="10" stroke-width="3"/>
      <rect id="Rectangle_73" data-name="Rectangle 73" width="13.464" height="0.433" rx="0.149" transform="translate(9.766 43.527) rotate(54.728)" fill="none" stroke="#1d1d1b" stroke-miterlimit="10" stroke-width="3"/>
      <rect id="Rectangle_74" data-name="Rectangle 74" width="13.464" height="0.385" rx="0.132" transform="translate(22.937 62.149) rotate(54.728)" fill="none" stroke="#1d1d1b" stroke-miterlimit="10" stroke-width="3"/>
      <ellipse id="Ellipse_12" data-name="Ellipse 12" cx="2.205" cy="2.125" rx="2.205" ry="2.125" transform="translate(1.666 37.714) rotate(-75.6)" fill="#1d1d1b"/>
      <ellipse id="Ellipse_13" data-name="Ellipse 13" cx="2.218" cy="2.168" rx="2.218" ry="2.168" transform="translate(5.876 5.886) rotate(-75.6)" fill="#1d1d1b"/>
      <path id="Path_144" data-name="Path 144" d="M503.643,2413.993l7.531,9.711-37,35.046-9.875-7.907" transform="translate(-345.914 -2297.105)" fill="#fff"/>
      <path id="Path_145" data-name="Path 145" d="M384.287,2358.049l-7.007-8.985,30.288-27.344,8.749,7.348" transform="translate(-358.732 -2310.697)" fill="#fff"/>
    </g>
  </g>
</svg>
