<svg xmlns="http://www.w3.org/2000/svg" width="692.863" height="716.463" viewBox="0 0 692.863 716.463">
  <g id="Group_5" data-name="Group 5" transform="translate(-902.502 -319.947)">
    <g id="Group_4" data-name="Group 4" transform="translate(904.005 321.009)">
      <path id="Path_15" data-name="Path 15" d="M820.949,753.12c5.273-1.241,13.207-4.17,26.343-16.515,3.766-3.538,10.466-10.206,26.619-32.426,8.778-12.075,9.459-13.763,18.953-27.114,12.39-17.423,18.586-26.135,25.564-34.187,12.8-14.776,16.629-15.463,37.42-36.877,2.42-2.493,11.51-11.9,21.683-23.579,4-4.592,20.92-23.789,43.751-57.3,20.831-30.575,19.071-31.568,33.389-50.135,7.569-9.816,9.127-10.919,31.086-38.2,17.737-22.033,21.269-26.964,25.33-34.618a137.018,137.018,0,0,0,13.816-39.392c2.025-11.24,4.217-23.5,1.152-38.2-5.213-25.007-22.218-40.614-34.794-52.157a159.211,159.211,0,0,0-32.8-22.809c-6.534-3.546-12.547-6.078-24.574-11.141-16.953-7.138-28.631-10.893-40.217-13.451-1.292-.286-2.433-.513-3.474-.712-14.2-2.711-21.48-4.044-29.935-1.194-5.857,1.975-9.511,4.969-14.751,9.6-6.87,6.07-10.614,11.9-18.733,25.543-10.357,17.406-16.726,28.783-16.726,28.783-17.08,30.51-15.854,27.823-17.719,31.572-9.31,18.712-15.2,32.222-25.007,54.814-18.077,41.643-27.116,62.463-32.639,79.148-5.835,17.63-12.618,45.27-28.706,73.741-3.168,5.608-8.922,15.214-19.535,18.986-8.923,3.172-17,.7-29.973-3.467-3.183-1.023-16.655-5.637-36.536-17.652-13.132-7.935-14.384-10.579-30.194-19.965-12.04-7.147-18.06-10.721-22.461-11.7-26.095-5.8-50.445,19.728-52.425,21.859-14.568,15.685-18.152,33.81-19.572,41.779-1.146,6.427-3.4,19.069,0,32.23,2.253,8.722,7.686,19.668,41.448,45.361,22.169,16.871,29.966,19.827,57.911,39.473,17.7,12.443,26.549,18.663,38.162,28.426,31.826,26.752,48.113,49.308,72.247,52.241A44.535,44.535,0,0,0,820.949,753.12Z" transform="translate(-586.829 -178.36)" fill="#6baee0" stroke="#1d1d1b" stroke-miterlimit="10" stroke-width="4"/>
      <path id="Path_16" data-name="Path 16" d="M937.286,227.537a66.841,66.841,0,0,0,6.1,7.249c6.878,7.089,13.369,10.586,25.16,17.159,13.986,7.8,3.721,2.245,17.98,10.117,35.923,19.832,32.681,17.309,35.541,19.374,9.151,6.605,14.116,12.054,22.194,11.807a63.223,63.223,0,0,0,10.628-1.474c6.072-1.35,6.985-2.463,11.917-3.014,4.727-.527,6.839.166,7.526-1.076,1.183-2.134-3.478-7.041-5.435-9.04A136.476,136.476,0,0,0,1039,255.82c-10.639-5.659-18.744-9.156-28.015-13.131-9.012-3.864-18.831-7.384-38.468-14.423-7.45-2.67-15.279-5.4-25.923-5.381a62.768,62.768,0,0,0-10.244.862" transform="translate(-559.939 -178.253)" fill="#4e5f74"/>
      <path id="Path_17" data-name="Path 17" d="M936.513,226.239a80.118,80.118,0,0,0,7.223,8.672c4.687,4.88,9.542,8.682,17.49,13.8,5.929,3.815,9.341,5.634,22.052,12.614,15.319,8.412,14.988,8.4,24.334,13.4,10.928,5.846,27.6,14.356,50.187,24.439" transform="translate(-559.926 -177.99)" fill="none" stroke="#1d1d1b" stroke-miterlimit="10" stroke-width="3"/>
      <path id="Path_18" data-name="Path 18" d="M906.894,804.789c-1.844.815,2.813,30.591,20.749,40.633a35.551,35.551,0,0,0,14.19,4.183c4.016.172,8.337.356,12.258-2.353,3.655-2.527,4.35-5.85,6.583-5.649,2.285.207,2.309,3.742,5.818,6.16.783.54,2.057,1.242,9.061,1.707,7.346.488,11.019.731,13.12-.373,4.746-2.493,4.729-7.139,7.819-7.23,3.165-.092,3.558,4.773,8.727,6.8,2.177.854,4.793.565,10.021-.015,5.44-.6,8.158-.9,10.412-2.185,5.694-3.234,5.655-8.579,9.006-8.722,3.415-.146,4.029,5.386,9.413,6.807,1.817.48,2.157-.042,8.627-1.152,9.857-1.69,10.69-.756,13.023-2.435,4.493-3.232,3.759-8.389,6.73-8.856,3.029-.477,3.953,4.808,9.319,6.441,1.143.347,2.114.415,11.535-1.6,6.784-1.455,10.18-2.256,10.911-3.1,4.038-4.693-2.03-12.555,2.083-18.317.723-1.014,1.741-1.932,9.374-4.339,11.7-3.689,17.55-5.535,20.258-4.04,6.885,3.8,3.236,16.167,10.213,19.249,2.019.892,5.394.184,12.1-1.442,6.1-1.481,9.173-2.2,11.037-4.087,4.353-4.406,3.354-11,5.912-11.442.835-.145,2.145.351,4.139,3.474a10.275,10.275,0,0,0,3.744,3.677c2.192,1.195,5.512,1.778,16.16-2.451,4.34-1.724,7.76-3.461,14.425-6.864,11.855-6.052,8.229-4.258,12.782-6.871,9.053-5.2,10.88-6.964,12.308-8.835.816-1.071,2.117-2.979,4.733-10.8.34-1.016,1.229-3.975,2.959-9.867,1.578-5.378,2.083-7.166,1.775-7.311-.631-.3-2.716,7.119-8.994,11.779-3.206,2.379-6,2.925-9.941,3.927-9.332,2.372-4.345,2.035-22.249,7.361-12.46,3.707-18.852,5.609-27.929,7.362-10.5,2.029-11.573,1.342-23.195,3.435-10.22,1.841-15.051,3.391-25.09,5.889-16.275,4.052-28.724,6.239-40.709,8.344-14.22,2.5-23.952,3.66-42.6,5.889-45.9,5.485-41.937,2.859-61.538,6.381a175.155,175.155,0,0,1-28.876,2.944,141.222,141.222,0,0,1-18.462-.981c-8.473-.994-12.71-1.492-16.568-3.436C910.719,816.761,908.095,804.259,906.894,804.789Z" transform="translate(-562.278 -135.847)" fill="#a28239" stroke="#1d1d1b" stroke-miterlimit="10" stroke-width="3"/>
      <path id="Path_19" data-name="Path 19" d="M594.848,537.043c-1.43.188-.975,3.164-5.239,21.1a80.963,80.963,0,0,0-2.286,18.555c.023,1.1.036,1.745.124,2.7.082.872,1.429,13.889,8.009,16.466,4.394,1.719,8.544-2.221,9.815-.509,1.212,1.634-2.878,4.8-2.553,10.177.217,3.583,2.271,6.195,4.123,8.55,1.783,2.267,4.169,5.3,8,6.307,4.983,1.31,8.682-1.8,9.869-.2,1.24,1.672-2.967,4.833-1.963,9.159.361,1.559,1.985,3.282,5.232,6.726,2.1,2.226,3.165,3.343,4.013,3.605,4.209,1.3,8.407-4.307,9.764-3.189,1.252,1.032-2.729,5.469-1.373,10.682.788,3.034,3.063,5.1,5.041,6.889,2.022,1.833,3.656,3.315,5.909,3.772,5.86,1.192,10.261-5.687,12.424-4.247,1.926,1.282-1.853,6.546-.08,12.33,1.208,3.937,3.9,4.58,15.892,12.617,9.676,6.485,10.827,8.015,14.643,8.265a16.421,16.421,0,0,0,4.8-.369,23.4,23.4,0,0,0,7.593-3.383c5.829-4.1,6.2-8.363,8.81-8.223,1.831.1,2.222,1.868,5.677,5.207,5.432,5.249,7.932,4.221,8.951,6.791,2.384,6.008-10.628,13.278-8.547,20.858.359,1.31.9,1.634,7.146,6.736,12.486,10.194,13.125,11.174,15.592,11.451,7.43.834,12.266-6.852,14.847-4.865,2.408,1.855-2.274,7.938.3,14.706.973,2.56,5.289,5.508,13.922,11.4a35.936,35.936,0,0,0,12.885,5.993,12.829,12.829,0,0,0,2.229.38c3.166.175,6.486-1.453,12.993-4.715,13.818-6.926,12.249-6.79,16.891-10.777,5.577-4.789,9.887-8.492,9.1-11.451-1.077-4.03-10.929-4.125-16.995-4.749-13.519-1.391-24.342-8.389-45.989-22.385-39.777-25.718-51.251-44.289-96.993-76.622-32.905-23.261-49.028-29.245-59.367-52.517C601.515,555.554,598.457,536.57,594.848,537.043Z" transform="translate(-587.314 -153.614)" fill="#a28239" stroke="#1d1d1b" stroke-miterlimit="10" stroke-width="3"/>
      <path id="Path_20" data-name="Path 20" d="M913.036,853.3c-14.06-14.855-12.524-38.019-11.668-45.55.089-.772.162-1.337.234-1.867.573-4.182,6.077-44.384,29.73-61.734,13.575-9.957,16.365-.092,55.794-12.753,6.267-2.012,14.867-5.745,32.07-13.209,8.105-3.518,17.544-7.747,26.907-17.079.648-.647,1.214-1.192,1.847-1.912,4.782-5.446,9.182-13.735,11.433-40.3a287.519,287.519,0,0,0,0-49.788,626.378,626.378,0,0,0-13.721-82.978c-6.611-28.559-8.127-29.247-18.293-71.125-6.335-26.094-9.713-40.131-12.975-59.317-7.64-44.941-11.245-67.723-.745-82.932,9.471-13.721,24.779-17.936,45.734-23.708,19.586-5.394,34.944-4.945,61.875-4.154a258.43,258.43,0,0,1,46.78,5.339c16.832,3.546,25.248,5.319,31.759,10.679,11.037,9.087,14.553,23,18.311,53.777,5.107,41.834,5.568,72.277,5.568,72.277.3,19.591.008,31.6-1.938,106.276-.614,23.532-1.733,33.994-1.182,52.991a523.979,523.979,0,0,0,4.9,57.46c5.773,41.121,11.3,45.509,19.147,91.068,9.659,56.047,4.6,68.847-2.287,75.867-3.934,4.008-11.855,6.583-27.539,11.57a385.444,385.444,0,0,1-44.84,11.484c-59.716,10.828-30.818,7.018-78.542,14.878-61.25,10.089-86.666,12.34-107.474,14.226C943.1,866.482,925.21,866.163,913.036,853.3Z" transform="translate(-562.723 -173.427)" fill="#6baee0" stroke="#1d1d1b" stroke-miterlimit="10" stroke-width="4"/>
      <path id="Path_21" data-name="Path 21" d="M1013.238,310.154c-.291-1.576,1.734-3.194,2.425-3.746,18.9-15.109,54.493-17.6,54.493-17.6,14.729-1.03,25.892-.71,39.147-.328,9.9.285,17.615.9,33.05,2.117,0,0,7.911.625,19.1,2.416a90.79,90.79,0,0,1,16.573,4.449c8.011,2.966,8.66,4.485,8.718,5.337.155,2.269-3.581,4.21-8.756,6.832a83.443,83.443,0,0,1-18.282,6.763,100.8,100.8,0,0,1-15.782,2.5c-55.191,3.143-43.038,1.835-67.677,2.813a166.6,166.6,0,0,1-20.38-.534c-8.154-.62-7.63-1.29-27.173-4.733,0,0-1.319-.232-10.288-3.2C1015.511,312.286,1013.5,311.571,1013.238,310.154Z" transform="translate(-553.91 -173.137)" fill="#4e5f74"/>
      <path id="Path_22" data-name="Path 22" d="M1186.846,305.623a78.724,78.724,0,0,1-11.122,6.068,83.053,83.053,0,0,1-14.634,4.855,103.336,103.336,0,0,1-16.975,2.428c-22.157,1.8-17.964,2.238-31.61,3.035-15.688.917-27.842.724-32.78.607a263.015,263.015,0,0,1-28.683-1.82c-14.691-1.83-22.009-3.557-26.341-4.855a120.487,120.487,0,0,1-11.931-4.273" transform="translate(-553.945 -171.764)" fill="none" stroke="#1d1d1b" stroke-miterlimit="10" stroke-width="3"/>
      <path id="Path_23" data-name="Path 23" d="M830.742,725.269c1.115.716-.025,4.449-.1,4.69a15.781,15.781,0,0,1-3.024,5.151c-1.848,2.291-3,3.721-4.967,4.7-1.224.61-3.1,1.214-6.866.839a30.438,30.438,0,0,1-11.374-3.556c-14.166-7.673-10.364-4.289-22.214-11.29-2.447-1.446-8.358-4.987-16.987-10.838-8.212-5.569-13.869-9.828-20.036-14.451-21.909-16.421-16.858-12.385-32.271-24.024-11.529-8.707-9.2-7.071-33.5-25.65-23.984-18.339-27.51-20.891-34.845-27.547-8.159-7.4-6.227-6.448-19.6-18.966-9.346-8.749-14.765-13.4-21.778-22.128a74.811,74.811,0,0,1-10.017-15.805c-3.678-7.917-4.219-12.9-4.356-14.451a31.615,31.615,0,0,1,1.306-12.645c1.378-4.183,4.239-9.592,5.888-9.171,1.485.379.656,5.145,1.952,11.428.429,2.08,1.618,6.877,7.84,16.257,5.545,8.36,10.941,14.107,17.423,20.774,12.007,12.349,18.011,18.523,26.569,26.192,8.383,7.511,14.52,12.384,25.7,21.225,4.975,3.935,12.391,9.734,34.409,26.193,17.647,13.193,30.385,22.55,42.25,31.16,16.546,12.005,23.761,17.013,32.668,22.579a221.131,221.131,0,0,0,32.443,16.275c1.279.5,1.56.508,3.709,1.337,4.535,1.751,5.893,2.709,7.849,2.17C829.8,725.443,830.276,724.971,830.742,725.269Z" transform="translate(-587.207 -154.158)" fill="#f6ed86" stroke="#1d1d1b" stroke-miterlimit="10" stroke-width="3"/>
      <path id="Path_24" data-name="Path 24" d="M1249.422,753.632c1.238-.043,2.654,4.383,2.845,8.152a19.511,19.511,0,0,1-1.977,9.429c-3.19,6.446-9.435,9.335-16.211,12.3-13.607,5.949-20.411,8.924-26.095,10.658-15.674,4.781-26.165,7.106-40.722,10.657-24.552,5.991-19.934,5.532-33.607,8.609-18.487,4.16-33.786,6.542-54.957,9.837-6.182.963-11.5,1.735-22.141,3.28-19.067,2.768-28.764,4.167-36.769,4.919-13.018,1.222-23.51,1.541-29.654,1.64-13.554.218-23.58-.348-31.629-.821-.752-.043-12.738-.779-28.467-3.278-7.767-1.235-15.364-2.728-20.628-8.314a17.726,17.726,0,0,1-4.676-9.313c-.266-1.825-.418-5.22.8-5.718,1.188-.485,3.144,2,3.547,2.484,7.185,8.617,41.392,8.555,41.392,8.555,21.5-.038,32.249-.057,49.489-1,8.2-.449,18-1,31.142-2.253,6.38-.609,20.928-2.092,39.833-5.006,14.753-2.273,25.849-4.519,48.041-9.01,17.755-3.593,31.228-6.335,49.489-10.763,12.125-2.939,1.209-.524,39.833-11.263,0,0,3.67-1.02,28-11.764a25.431,25.431,0,0,0,11.522-9.275h0C1248.41,754.944,1248.761,753.655,1249.422,753.632Z" transform="translate(-562.433 -136.626)" fill="#f6ed86" stroke="#1d1d1b" stroke-miterlimit="10" stroke-width="3"/>
      <path id="Path_25" data-name="Path 25" d="M1179.414,311.526c6.6,2.691,7.192,15.742,8.118,29.85,1.2,18.23,4.86,36.308,4.871,54.582.038,60.369,2.5,47.1,1.624,92.108-1.225,62.877-5.618,67.469-3.247,106.606,1.211,20,2.4,39.688,8.119,65.67,3.09,14.046,12.053,50.623,20.3,92.96,2.387,12.26,4.821,25.722-2.436,35.82-7.883,10.972-24.349,14-26.792,10.234-1.892-2.912,5.786-8.085,8.931-20.469,1.336-5.258,1.5-10.408-1.623-27.291-2.647-14.329-4.786-25.9-10.556-43.5-6.009-18.326-7.822-18.37-12.179-33.261a232.489,232.489,0,0,1-7.307-36.673c-3.154-27.657.181-49.468,1.624-59.7,2.17-15.386,9.084-64.4,7.308-111.723-2.156-57.429-3.383-90.114-21.11-113.429-3.047-4.008-13.554-16.91-9.742-25.586,1.554-3.537,7.011-6.1,17.862-11.086C1172.2,312.5,1176.765,310.446,1179.414,311.526Z" transform="translate(-543.614 -171.323)" fill="#5484a9"/>
      <path id="Path_26" data-name="Path 26" d="M1030.883,456.642c-3.381,6.363-8.062,14.814-14.012,24.528-2.348,3.831-10.129,16.405-24.521,36.068A764.71,764.71,0,0,1,941.2,580c-6.937,7.608-13.2,14.147-22.1,23.425-26.151,27.288-24.875,24.438-31.95,32.9-5.916,7.075-15.121,20.809-33.531,48.279-.109.162-4.87,6.611-14.394,19.508-9.628,13.04-14.594,19.6-22.045,21.452-4.212,1.048-7.614.471-12.6-.374-9.734-1.651-16.4-5.977-22.046-9.728-7.419-4.925-12.192-8.095-11.59-10.658,1.046-4.461,16.473.978,31.528-7.935,6.139-3.635,9.931-8.676,17.515-18.756a208.461,208.461,0,0,0,16.815-26.691c6.6-11.852,15.208-27.324,23.82-39.677,7.249-10.4,22.093-31.291,46.942-47.612,14.468-9.5,18.475-8.356,30.827-18.756,3.055-2.572,10.244-8.9,26.623-31.019,10.313-13.927,18.376-24.815,27.324-40.4,19.152-33.355,22.452-53.554,28.5-52.886C1024.069,421.424,1028.139,427.7,1030.883,456.642Z" transform="translate(-572.914 -162.711)" fill="#5e97c1"/>
      <path id="Path_27" data-name="Path 27" d="M1058.668,624.161c-1.11.174.188,7.039-1.357,18.631a77.613,77.613,0,0,1-5.429,20.959,57.914,57.914,0,0,1-11.308,18.165,59.214,59.214,0,0,1-18.547,13.042c-6.443,2.956-10.988,3.674-10.856,4.658.162,1.212,7.348,2.125,14.476.465,7.375-1.717,12.581-5.7,20.355-11.644,4.3-3.285,6.444-4.928,8.142-6.986,5.231-6.34,6.511-13.174,8.143-21.891.985-5.263,1.988-10.84,1.357-18.165C1062.871,632.422,1059.915,623.966,1058.668,624.161Z" transform="translate(-554.07 -146.781)" fill="#5484a9"/>
      <path id="Path_28" data-name="Path 28" d="M835.961,417.945c-4.815,7.369-6.285,13.851-7.85,19.768-.313,1.182-3.394,10.456-9.557,29-5.282,15.9-7.491,21.547-8.933,25.106-3.157,7.788-4.734,11.683-7.437,16.528-3.814,6.838-8.294,14.87-16.561,21.783-8.3,6.942-15.353,8.521-14.855,11.165.407,2.164,5.545,3.281,9.557,3.107,9.422-.407,16.144-8.07,21.63-14.5a82.906,82.906,0,0,0,12.574-20.2c4.841-10.734,4.784-15.027,9.558-32.629,1.847-6.816,5.088-16.975,11.569-37.291,6.617-20.747,9.622-29.219,8.047-30.04C842.293,409.008,837.99,414.84,835.961,417.945Z" transform="translate(-572.927 -163.603)" fill="#5484a9"/>
      <path id="Path_29" data-name="Path 29" d="M1010.788,319.589c-3.009,2.018-4.04,5.659-4.608,7.664-1.388,4.9.328,6.695.709,15.692.3,7.018-.529,11.1.355,11.314.841.2,1.855-3.444,4.608-8.029a42.492,42.492,0,0,1,8.505-10.219c5.024-4.182,12.21-4.248,26.583-4.38,3.406-.03,13.585.008,22.685-.364.447-.018,1.541-.065,3.006-.208,6.895-.674,13.656-2.678,13.55-3.474-.112-.849-7.888.657-20.809-.332-4.691-.36-8.484-.972-16.07-2.193-10.331-1.666-15.5-2.5-20.554-3.658C1018.122,318.964,1014.418,317.154,1010.788,319.589Z" transform="translate(-554.504 -170.759)" fill="#5484a9"/>
      <path id="Path_30" data-name="Path 30" d="M922.2,241.874c-1.08-1.453,2.623-8.17,8.093-9.225a8.163,8.163,0,0,1,4.543.389c2.234.9,2.718,2.373,5.173,4.937a52.7,52.7,0,0,0,6.562,5.2c1.812,1.324,3.5,2.46,6.815,4.677,5.413,3.626,6.8,4.437,6.688,4.678-.193.409-4.55-1.182-8.455-3.119-3.242-1.608-3.322-2.04-7.193-4.028a36.146,36.146,0,0,0-7.95-3.379,25.113,25.113,0,0,0-7.193-.909C924.547,241.212,922.816,242.7,922.2,241.874Z" transform="translate(-561.063 -177.5)" fill="#5484a9"/>
      <path id="Path_31" data-name="Path 31" d="M979.594,264.566c2.913,1.621,5.961,2.982,8.834,4.678,2.688,1.587,5.367,3.007,10.726,5.846,7.213,3.823,6.646,3.155,12.871,6.5,7.409,3.976,7.675,4.633,11.737,6.237,3.826,1.511,7.165,2.338,7.066,2.988-.073.486-1.989.293-4.164.649-4.6.754-7.751,3.536-11.736,7.147-5.459,4.945-7.086,8.39-8.581,7.8-1.073-.427-.691-2.382-1.768-6.5a33.628,33.628,0,0,0-3.407-8.186c-2.132-3.859-4.471-6.192-7.824-9.485-2.207-2.169-1.8-1.493-9.59-8.445a49.381,49.381,0,0,1-6.562-7.667c-1.139-1.61-1.819-2.761-1.514-3.119C976.059,262.567,977.755,263.543,979.594,264.566Z" transform="translate(-556.859 -175.115)" fill="#5484a9"/>
      <path id="Path_32" data-name="Path 32" d="M961.731,715.618c-6.5.138-7.719,4.041-13.157,3.661-4.038-.283-4.9-2.54-8.535-1.831-.566.11-4.329.844-5.69,4.028a7.733,7.733,0,0,0,1.778,8.055c3.683,3.594,10.723,1.191,16.358-.732,7.712-2.634,17.494-8.036,16.712-10.984C968.693,715.911,963.924,715.571,961.731,715.618Z" transform="translate(-560.134 -139.608)" fill="#e4eef9"/>
      <path id="Path_33" data-name="Path 33" d="M645.489,484.11a23.421,23.421,0,0,1,10.972-.931c7.584,1.2,12.54,6.017,15.827,8.888,17.35,15.152,34.942,16.965,34.052,20.74-.547,2.325-7.444,2.613-11.031,2.47-13.2-.526-17.316-8.306-33.093-15.308-14.9-6.614-25.873-6.176-25.934-9.747C636.231,487.206,644.024,484.6,645.489,484.11Z" transform="translate(-583.473 -157.86)" fill="#e4eef9"/>
      <path id="Path_34" data-name="Path 34" d="M933.705,753.662c-.428,1.55,6.273,4.987,11.074,6.842a54.416,54.416,0,0,0,21.6,3.421c25.305-.555,37.959-.834,44.3-2.281,18.561-4.237,34.823-12.612,34.331-14.254-.279-.93-6.093.141-17.72,2.281-13.772,2.535-17.642,3.882-24.364,5.131-13.976,2.6-25.011,1.934-38.206,1.141C945.685,754.8,934.249,751.7,933.705,753.662Z" transform="translate(-560.148 -137.142)" fill="#e4eef9"/>
      <path id="Path_35" data-name="Path 35" d="M628.529,507.42c2.26,5.889,3.39,8.833,4.318,10.707,4.838,9.772,12.931,11.906,12.094,14.32-.793,2.283-8.854,2.745-15.117-.622-7.41-3.985-11.023-12.641-10.885-19.924.124-6.524,3.281-13.227,5.443-13.075C625.49,498.9,625.973,500.76,628.529,507.42Z" transform="translate(-584.834 -156.611)" fill="#e4eef9"/>
      <path id="Path_36" data-name="Path 36" d="M927.349,290.2c-2.773-1.713-16.551,14.256-24.411,25.077l-.161.223A132.79,132.79,0,0,0,886.4,346.424c-5.746,14.737-10.432,26.754-8.191,28.111,2.905,1.762,16.1-15.241,24.572-28.111C919.472,321.07,930.7,292.269,927.349,290.2Z" transform="translate(-564.544 -172.983)" fill="#e4eef9"/>
      <path id="Path_37" data-name="Path 37" d="M1139.365,390.15c8.977,11.289,11.659,23.363,12.642,28.13,4.25,20.638,4.184,38.107,4.077,49.963-.387,42.967-.634,64.453-3.262,64.657-2.246.175-4.887-13.4-5.3-15.534-3.306-17.008-.1-24.135-.408-42.406-.189-11.239-1.757-20.088-4.893-37.786-2.244-12.669-3.549-20.031-6.525-30.229-4.632-15.879-9.27-24.774-7.34-26.031C1130.118,379.766,1135.968,385.877,1139.365,390.15Z" transform="translate(-544.914 -165.87)" fill="#e4eef9"/>
      <path id="Path_38" data-name="Path 38" d="M1178.119,661.741c2.5,6.609,3.282,6.841,6.012,14.03.868,2.286,2.408,6.53,6.813,23.934,0,0,2.558,10.108,6.011,26,1.876,8.631,2.515,13.012,2.4,18.569a54,54,0,0,1-3.088,17.43,52.289,52.289,0,0,1-2.857,6.419,57.987,57.987,0,0,1-6.479,9.575c-3.7,4.233-8.718,6.7-28.066,12.088-7.1,1.978-12.538,3.349-16.82,4.418-28.442,7.1-31.6,7.268-32.062,6.19-.6-1.4,3.674-4.063,12.825-11.554,10.939-8.958,16.954-13.883,21.2-19.22,7.145-8.971,8.592-18.215,11.259-35.251,2.551-16.293,1.868-29.325,1.2-40.852-.745-12.875-1.684-12.457-3.583-35.047-1.676-19.953-1.451-26.328-.826-32.216a103.9,103.9,0,0,1,7.214-26.822c1.489-3.587,4.456-10.73,6.412-10.316,1.7.36,1.521,6.228,2,15.267a290.389,290.389,0,0,0,4.007,33.013A130.971,130.971,0,0,0,1178.119,661.741Z" transform="translate(-546.324 -149.531)" fill="#5e97c1"/>
      <path id="Path_39" data-name="Path 39" d="M1095.658,324.789a45.032,45.032,0,0,0-6.923,1.72,146.374,146.374,0,0,1-23.937,4.65c-3.091.293-6.513.327-13.357.393-8.827.085-12.471-.225-18.7.786-4.622.751-6.993,1.158-9.923,2.75-4.6,2.5-7.181,6.051-9.924,9.825-2.591,3.566-5.112,7.036-6.488,11.788-1.266,4.378-.969,7.8,1.038,19.155,2.784,15.761,4.941,25.063,4.941,25.063,2.316,9.995,3.987,16.564,5.088,21.013,4.772,19.29,4.316,20.938,8.455,38.534,3.141,13.357,6.182,24.169,12.262,45.791,3.215,11.43,5.838,20.227,7.138,27.513.037.207.571,3.2,1.647,7.161,1.121,4.117,2.8,10.276,3.844,10.175,1.549-.149,1.479-13.943,1.385-26.611-.3-40.029-.448-42.87-.382-48.728a256.52,256.52,0,0,1,5.724-53.835c3.536-16.047,9-40.839,23.663-59.729,12.283-15.825,17.554-20.827,17.554-20.827,7.771-7.374,13.546-10.862,12.6-13.754C1110.28,324.341,1101.275,324.035,1095.658,324.789Z" transform="translate(-554.504 -170.288)" fill="#5e97c1"/>
      <path id="Path_40" data-name="Path 40" d="M833.962,508.089a145.666,145.666,0,0,1-7.839,18.006c-8.166,15.2-19.179,20.064-17.487,23.594,1.266,2.643,8.2,1.485,9.648,1.241,11.634-1.944,18.143-12.425,19.3-14.279,6.2-9.975,5.39-20.173,4.825-27.32-.417-5.266-1.774-12.975-3.618-13.038C837.366,496.242,836.52,500.765,833.962,508.089Z" transform="translate(-569.969 -156.81)" fill="#e4eef9"/>
      <path id="Path_41" data-name="Path 41" d="M874.779,354.926a63.228,63.228,0,0,0-5.248,9.724c-2.34,5.407-5.139,11.874-3.98,12.274,1.039.359,4.8-4.318,6.524-6.708a39.353,39.353,0,0,0,6.368-13.968c.484-1.793,1.709-6.338.769-6.577C878.367,349.455,876.163,352.814,874.779,354.926Z" transform="translate(-565.513 -168.31)" fill="#e4eef9"/>
      <path id="Path_42" data-name="Path 42" d="M1144.291,324.807c-.036-.175-.564-.391-5.623.1-3.35.325-5.025.487-7.931.988,0,0-1.448.249-13.114,1.64-14.588,1.739-25.178.217-25.248,1.009-.066.748,9.285,2.947,19.732,2.9,3.425-.015,7.513-.556,15.688-1.641a72.944,72.944,0,0,0,14.217-3.785C1142.83,325.717,1144.357,325.129,1144.291,324.807Z" transform="translate(-547.701 -170.275)" fill="#e4eef9"/>
      <path id="Path_43" data-name="Path 43" d="M956.734,252.884c.3-.266,1.6,1.269,4.2,3.122,5.507,3.927,9.915,4.327,9.8,4.924-.133.66-5.734,1.238-9.914-1.922C957.888,256.795,956.323,253.247,956.734,252.884Z" transform="translate(-558.345 -175.903)" fill="#e4eef9"/>
      <path id="Path_44" data-name="Path 44" d="M650.546,538.115a3.321,3.321,0,0,0-3.648,1.315c-.976,1.764.773,3.964.911,4.133,1.551,1.895,4.625,2.6,5.655,1.5C654.761,543.68,653.358,538.856,650.546,538.115Z" transform="translate(-582.664 -153.538)" fill="#e4eef9"/>
      <path id="Path_45" data-name="Path 45" d="M659.329,550.534c-.684-.355-2.443-1.266-3.284-.564-1.013.846-.266,3.671.73,5.447,2.255,4.022,7.761,6.186,8.939,4.884C666.979,558.9,663.836,552.867,659.329,550.534Z" transform="translate(-581.961 -152.62)" fill="#e4eef9"/>
      <path id="Path_46" data-name="Path 46" d="M1056.79,744.3c.184,1.3-2.73,3.366-5.6,3.265-2.229-.079-4.723-1.474-4.664-2.69.069-1.433,3.69-2.71,6.716-2.306C1053.589,742.619,1056.613,743.049,1056.79,744.3Z" transform="translate(-551.297 -137.5)" fill="#e4eef9"/>
      <path id="Path_47" data-name="Path 47" d="M973.721,712.846c4.743-1.36,5.607-1.3,7.275-1.921,3.576-1.326,5.185-3.661,5.6-3.267.375.361-.743,2.513-2.239,4.226-2.869,3.286-7.854,5.793-11.38,4.226-.776-.345-2.013-1.125-1.927-1.847C971.124,713.621,972.216,713.277,973.721,712.846Z" transform="translate(-557.217 -140.236)" fill="#e4eef9"/>
      <path id="Path_48" data-name="Path 48" d="M962.533,228.9c.5-1.317,30.28,9.029,56.869,21.469a184.048,184.048,0,0,1,19.377,10.41c13.857,8.561,25.639,18.408,25.064,19.3s-13.151-8.135-38-20.5c-7.279-3.622-7.385-3.437-23.528-11.039C975.6,235.955,962.243,229.665,962.533,228.9Z" transform="translate(-557.885 -177.79)" fill="#6a8398"/>
      <path id="Path_49" data-name="Path 49" d="M1033.113,300.543c-.181-1.013,11.512-4.23,20.847-6.133a182.323,182.323,0,0,1,26.471-3.274c11.038-.632,18.925-.31,30.709.207a343.414,343.414,0,0,1,43.482,4.293c1.584.269,15.282,2.595,15.189,3.373-.078.646-9.614-.266-28.889-1.534-21.684-1.425-32.757-2.131-44.077-1.84-7.206.185-13.738.738-26.8,1.84C1045,299.589,1033.291,301.545,1033.113,300.543Z" transform="translate(-552.35 -172.928)" fill="#6a8398"/>
      <path id="Path_50" data-name="Path 50" d="M1010.969,251.01" transform="translate(-554.086 -176.047)" fill="#6a8398"/>
      <path id="Path_51" data-name="Path 51" d="M1155.28,355.84a52.2,52.2,0,0,0,14.563-3.634,70.727,70.727,0,0,0,16.107-9.769c4.381-3.343,5.461-4.782,9.958-7.616,5.5-3.469,8.32-5.188,11.446-4.426,4.487,1.095,8.19,6.735,7.723,11.587-.218,2.265-1.386,4.786-11.916,12.5-6.878,5.037-10.318,7.555-15.886,10.451a99.235,99.235,0,0,1-28.023,9.542" transform="translate(-542.768 -169.835)" fill="#6d93cc" stroke="#1b2745" stroke-miterlimit="10" stroke-width="3"/>
      <path id="Path_52" data-name="Path 52" d="M1104.129,360.052c-.73-.271-7.636-2.695-13.589,1.628-.717.521-6.6,4.94-5.793,11.4.8,6.416,7.494,9.158,8.689,9.649a15.978,15.978,0,0,0,12.375-.38" transform="translate(-548.306 -167.567)" fill="#6d93cc" stroke="#1b2745" stroke-miterlimit="10" stroke-width="3"/>
      <path id="Path_53" data-name="Path 53" d="M1148.5,352.609c-2.789,1-6.986,1.515-15.379,2.554-17.8,2.2-25.875-4.267-29.767.511-1.622,1.992-.467,3.422.5,16.857.96,13.376.092,15.823,2.48,18.388,2.6,2.791,7.722,2.58,17.86,2.044a103.345,103.345,0,0,0,26.294-4.6c7.687-2.41,11.557-3.676,12.9-6.641,1.958-4.331-2.05-6.822-3.969-19.411-.978-6.419-.59-10.065-3.016-11.381C1154.436,349.867,1152.317,351.249,1148.5,352.609Z" transform="translate(-546.903 -168.24)" fill="#f6ed85" stroke="#1b2745" stroke-miterlimit="10" stroke-width="3"/>
      <path id="Path_54" data-name="Path 54" d="M1145.763,364.734c.753.742,1.047,2.282,1.635,5.362.561,2.934.84,4.4.31,5.4-.959,1.793-3.329,1.436-8.747,2.252-5.544.834-5.91,1.635-12.392,2.5-6.46.864-7.664.277-8.261-.5-.747-.973-.235-1.841-.244-6.505-.006-4.624-.512-4.9,0-5.755,1.609-2.664,6.593.072,14.923-1.005C1140.07,365.565,1143.654,362.657,1145.763,364.734Z" transform="translate(-545.705 -167.185)" fill="#ae883d" stroke="#1b2745" stroke-miterlimit="10" stroke-width="2"/>
      <path id="Path_55" data-name="Path 55" d="M1091.888,814.855c.121.37,2.45-.088,6.187-.782,6.583-1.222,3.088-.494,7.009-1.271,5.252-1.042,9.294-1.907,10.187-2.1,5.7-1.222,8.547-1.831,11.5-2.505,9.922-2.265,9.923-2.707,20.384-5.211,7.263-1.738,8.453-1.811,16.618-3.845,4.5-1.12,4.166-1.107,9.421-2.424,11.146-2.8,11.661-2.569,16.549-4.1,1.074-.336,5.885-1.856,12.167-4.34,7.958-3.147,7.01-3.384,11.924-5.063,7.037-2.4,9.222-2,12.9-4.823a23.471,23.471,0,0,0,5.177-5.652,19.591,19.591,0,0,0,2.46-5.235,9.77,9.77,0,0,0,.45-4.6c-.04-.224-.173-1.756-.524-1.78-.211-.015-.346.525-.674,1.113a6.243,6.243,0,0,1-2.022,2,56.663,56.663,0,0,1-7.039,4.6c-2.113,1.061-2.685,1.206-9.211,3.857-4.049,1.646-3.526,1.464-7.413,3.042-3.7,1.5-7.647,3.083-9.061,3.635-8.334,3.254-12.077,3.328-27.033,7.568-6.587,1.867-5.249,1.679-10.709,3.19-7.875,2.18-13.614,3.388-22.615,5.268-16.578,3.461-24.866,5.191-25.085,5.194a3.09,3.09,0,0,0-1.348.3,2.936,2.936,0,0,0-.824.593c-1.018,1.026-7.067,4.836-10.109,6.752-2.925,1.842-5.522,4.177-8.5,5.93C1092.452,814.284,1091.823,814.652,1091.888,814.855Z" transform="translate(-547.74 -136.039)" fill="#b5a865"/>
      <path id="Path_56" data-name="Path 56" d="M796.784,712.091c.331,1.3,3.886,1.554,9.422,1.966,3.876.289,5.814.434,8.167-.031,6.018-1.187,9.928-5.344,13.491-9.13,2.1-2.23,2.435-3,7.86-10.493,4.231-5.845,3.909-5.216,8.273-11.2,6.052-8.3,10.565-14.854,13.906-19.713,7.931-11.533,7.621-11.552,13.685-20.256,5.938-8.526,9.338-13.407,13.543-18.622,6.832-8.47,11.377-12.348,21.357-21.943,8.937-8.593,31.909-30.677,30.7-32.2-.874-1.1-14.476,8.2-26.549,18.285a246.846,246.846,0,0,0-41.265,44.189c-9.445,13.094-7.567,12.555-20.8,31.272-17.545,24.819-23.7,29.8-27.07,32.292C808.808,705.885,796.049,709.2,796.784,712.091Z" transform="translate(-570.887 -150.999)" fill="#5484a9"/>
      <path id="Path_57" data-name="Path 57" d="M1167.173,357.993c-.752-.2-1.736.793-1.954,1.811-.026.121-.238,1.114.326,1.61a1.741,1.741,0,0,0,2.346-.536C1168.574,359.883,1168,358.214,1167.173,357.993Z" transform="translate(-541.993 -167.659)" fill="#161f29" stroke="#1b2745" stroke-miterlimit="10" stroke-width="1"/>
      <path id="Path_58" data-name="Path 58" d="M1180.316,352.382c-.983-.165-2.26,1.253-2.085,2.549a1.95,1.95,0,0,0,.782,1.275,2,2,0,0,0,2.736-.537,2.265,2.265,0,0,0-.2-1.945C1181.38,353.342,1181,352.5,1180.316,352.382Z" transform="translate(-540.969 -168.098)" fill="#161f29" stroke="#1b2745" stroke-miterlimit="10" stroke-width="1"/>
      <path id="Path_59" data-name="Path 59" d="M1192.408,343.818c-.981-.165-2.26,1.253-2.085,2.549a1.947,1.947,0,0,0,.782,1.275,2,2,0,0,0,2.737-.537,2.269,2.269,0,0,0-.2-1.945C1193.472,344.778,1193.087,343.932,1192.408,343.818Z" transform="translate(-540.02 -168.769)" fill="#161f29" stroke="#1b2745" stroke-miterlimit="10" stroke-width="1"/>
      <path id="Path_60" data-name="Path 60" d="M1117.265,351.759c-.475-1.554-1.034-1.8-1.232-1.878a3.655,3.655,0,0,0-2.279-.018,2.193,2.193,0,0,0-.564.317c-1.02.81-.877,2.74-.844,3.2.252,3.523.953,16.807,1.034,18.669.206,4.735.121,20.868.344,22.717a2.921,2.921,0,0,0,.615,1.546,2.123,2.123,0,0,0,.569.5,4.2,4.2,0,0,0,2.888.28c1.075-.346,1.267-1.261,1.512-4.452.224-2.926.221-3.524.221-3.524-.042-6.886.111-3.8,0-6.857-.167-4.577-.416-8.961-.693-13.362-.723-11.493-.768-9.434-.809-11.054-.038-1.5-.39-3-.443-4.506A6.852,6.852,0,0,0,1117.265,351.759Z" transform="translate(-546.137 -168.308)" fill="#dfaf3d" stroke="#141c34" stroke-miterlimit="10" stroke-width="1"/>
      <path id="Path_61" data-name="Path 61" d="M689.844,651.854c1.138.9,2.826,2.234,4.887,3.828,3.8,2.941,5.9,4.626,10.344,7.811,3.145,2.256,1.854,1.447,10,7.558,4.9,3.68,8.556,6.36,10.739,7.964,22.424,16.477,20.995,15.7,26.749,19.73,18.046,12.636,19.792,11.648,32.167,20.086,0,0,8.7,5.934,17.488,8.37.785.218,1.577.405,1.577.405.6.143,2.012.479,3.35.66,2.105.285,3.483.47,5.124-.051a9.042,9.042,0,0,0,3-1.724,12.762,12.762,0,0,0,2.414-2.638c.938-1.276,2.922-3.749,2.415-4.362-.13-.156-.347-.1-.8-.1a9.944,9.944,0,0,1-2.915-.659,116.666,116.666,0,0,1-13.185-5.381c-7.43-3.591-6.046-2.726-11.281-5.325-3.542-1.759-6.852-3.4-11.182-5.833-2.828-1.589-7.677-4.327-13.547-8.37-2.995-2.063-2.892-2.149-7.979-5.884-8.282-6.078-10.634-7.378-18.719-13.238-4.826-3.5-3.034-2.343-10.591-7.912-8.687-6.4-11.868-8.525-20.05-14.659-.463-.347-.528-.4-.689-.507C703.18,647.533,695.57,649.433,689.844,651.854Z" transform="translate(-579.272 -144.814)" fill="#b5a865"/>
      <path id="Path_62" data-name="Path 62" d="M1003.438,188.148c-.594.156-.7,1.639-.807,3.411-.447,7.286-.671,10.929-.657,11.716.12,6.8.18,10.192.327,11.2a43.056,43.056,0,0,0,3.182,11.233,32.834,32.834,0,0,0,5.93,9.363,25.578,25.578,0,0,0,7.269,5.73c2.83,1.465,4.807,2.488,7.482,2.334,1.425-.082,4.312-1.457,10.086-4.207.139-.067,1.262-.6,2.718-1.411a14.185,14.185,0,0,0,2.726-1.686c.371-.408.808-1.064,1.331-5.786a28.637,28.637,0,0,0,.306-4.078,18.627,18.627,0,0,0-1.069-5.115c-1.943-5.106-7.15-8.1-11.066-10.357-2.722-1.567-3.535-1.639-7.138-3.832-2.187-1.332-3.933-2.549-5.332-3.526-1.878-1.309-3.642-2.546-5.834-4.349a38.51,38.51,0,0,1-4.1-3.648C1005.292,191.342,1004.383,187.9,1003.438,188.148Z" transform="translate(-554.792 -180.979)" fill="#f6ed86" stroke="#1d1d1b" stroke-miterlimit="10" stroke-width="2"/>
      <path id="Path_63" data-name="Path 63" d="M1032.575,229.087c.41,0,.715-2.216.8-3.1a12.894,12.894,0,0,0-.353-5.133c-1.258-4.244-4.873-6.774-5.135-6.546-.1.091.328.613,1.028,2.016a29.923,29.923,0,0,1,2.007,5.656C1032.143,226.532,1032.134,229.091,1032.575,229.087Z" transform="translate(-552.76 -178.927)" fill="#f9f6ce" stroke="#1d1d1b" stroke-miterlimit="10" stroke-width="0.25"/>
      <path id="Path_64" data-name="Path 64" d="M1022.57,232.568c.114-.2-1.639-1.152-4.024-3.5a32.649,32.649,0,0,1-4.122-5.007,40.54,40.54,0,0,1-4.514-8.583c-1.646-4.348-1.979-7.535-2.465-7.472-.385.049-.5,2.1-.458,3.549a21.827,21.827,0,0,0,2.669,9.194,23.717,23.717,0,0,0,5.284,7.581C1018.414,231.5,1022.406,232.853,1022.57,232.568Z" transform="translate(-554.399 -179.42)" fill="#f6f6d5" stroke="#1d1d1b" stroke-miterlimit="10" stroke-width="0.25"/>
      <path id="Path_65" data-name="Path 65" d="M1048.734,266.736a42.516,42.516,0,0,0,4.236-2.419c2.039-1.261,3.168-2.105,3.433-3.444a4.146,4.146,0,0,0,.027-1.122,10.787,10.787,0,0,0-.9-3.741,34.761,34.761,0,0,0-2.9-5.87c-.967-1.608-.9-1.369-4.488-6.7a40.522,40.522,0,0,0-5.091-6.653c-.581-.589-1.082-1.05-1.42-1.352l-15.554,7.129a128.474,128.474,0,0,0,3.444,15.782,25.461,25.461,0,0,0,4.461,9.532,5.746,5.746,0,0,0,.719.658,8.67,8.67,0,0,0,2.207.968,9.765,9.765,0,0,0,1.512.279C1041.818,270.108,1048.734,266.736,1048.734,266.736Z" transform="translate(-552.901 -177.269)" fill="#5e97c1" stroke="#1d1d1b" stroke-miterlimit="10" stroke-width="3"/>
      <path id="Path_66" data-name="Path 66" d="M1036.96,270.937a11.94,11.94,0,0,1,1.589,3.592c.107.4,2.154,4.879,6.249,13.842,3.583,7.846,4.634,10.021,7.477,16.2,6.073,13.192,7.091,15.8,9.8,21.624l13.824,1.531,8.443.935c-.372-.88-1.719-4.069-2.094-4.956-4.949-11.7-7.424-17.554-11.112-26.217-7.17-16.841-10.756-25.261-10.8-25.339,0,0-.734-1.249-3.888-9.134a2.947,2.947,0,0,1-.19-.719,3.252,3.252,0,0,1,.165-1.485c.1-.309.363-1.445-.889-4.8a34.5,34.5,0,0,0-2.9-5.87c-.967-1.608-.9-1.369-4.488-6.7a40.522,40.522,0,0,0-5.091-6.653c-.581-.589-1.082-1.05-1.42-1.352l-15.554,7.129a128.4,128.4,0,0,0,3.444,15.781,25.457,25.457,0,0,0,4.461,9.533A18.068,18.068,0,0,1,1036.96,270.937Z" transform="translate(-552.901 -177.269)" fill="#6baee0" stroke="#1d1d1b" stroke-miterlimit="10" stroke-width="2"/>
      <path id="Path_67" data-name="Path 67" d="M1056.74,260.338a24.424,24.424,0,0,1-6.148,4.336,30.514,30.514,0,0,1-15.783,2.83" transform="translate(-552.216 -175.316)" fill="#5e97c1" stroke="#1d1d1b" stroke-miterlimit="10" stroke-width="2"/>
      <path id="Path_68" data-name="Path 68" d="M1034,267.182a6.507,6.507,0,0,0,.795.724c.345.015.659.032,1.017.047,6.642.264,9.625.134,12.92-1.164,2.923-1.152,3.976-2.394,7.594-4.928a2.4,2.4,0,0,1-.055-.26,3.261,3.261,0,0,1,.164-1.485c.1-.31.365-1.446-.888-4.8a34.617,34.617,0,0,0-2.9-5.871c-.968-1.607-.9-1.369-4.489-6.7a40.579,40.579,0,0,0-5.091-6.654c-.58-.588-1.082-1.049-1.419-1.351l-15.555,7.13a128.724,128.724,0,0,0,3.444,15.781A25.466,25.466,0,0,0,1034,267.182Z" transform="translate(-552.9 -177.323)" fill="#5e97c1" stroke="#1d1d1b" stroke-miterlimit="10" stroke-width="1"/>
      <path id="Path_69" data-name="Path 69" d="M1125,326.035l4.581-95.331a3.012,3.012,0,0,0-2.863-3.152l-39.708-1.909a3.012,3.012,0,0,0-3.153,2.864l-4.687,97.528Z" transform="translate(-548.737 -178.037)" fill="#6baee0" stroke="#1d1d1b" stroke-miterlimit="10" stroke-width="2"/>
      <g id="Group_3" data-name="Group 3" transform="translate(531.975 50.935)">
        <path id="Path_70" data-name="Path 70" d="M1103,331.7l5.578-101.646a1.028,1.028,0,0,1,.128-.436l-21.363-.885a1.1,1.1,0,0,0-1.15,1.017L1080.6,331.7Z" transform="translate(-1080.6 -228.73)" fill="#5484aa"/>
      </g>
      <path id="Path_71" data-name="Path 71" d="M1098.364,196.408l17.082.642,12.35,25.884-42.332-1.987Z" transform="translate(-548.243 -180.33)" fill="#f6ed85" stroke="#1d1d1b" stroke-miterlimit="10" stroke-width="2"/>
      <path id="Path_72" data-name="Path 72" d="M1099.755,192.8l12.261.366-6.333-11.671Z" transform="translate(-547.123 -181.499)" fill="#1e1c13" stroke="#1d1d1b" stroke-miterlimit="10" stroke-width="1"/>
      <rect id="Rectangle_6" data-name="Rectangle 6" width="23.771" height="13.97" rx="2.787" transform="matrix(0.928, 0.372, -0.372, 0.928, 616.398, 60.312)" fill="#f7e894" stroke="#1d1d1b" stroke-miterlimit="10" stroke-width="2"/>
      <path id="Path_73" data-name="Path 73" d="M1183.469,256.355c-.364-.847-1-1.051-5.112-2.7-2.655-1.069-5.29-2.188-7.952-3.242-1.952-.773-3.818-1.527-6.718-2.609,0,0-1.812-.666-5.4-1.552-2.348-.58-3.087-.64-3.772-.279-1.1.576-1.413,1.888-1.86,4.078-1.187,5.8-1.183,7.343-1.893,9.856a58.851,58.851,0,0,1-2.595,6.082c-1.771,3.888-3.289,6.877-4.046,8.335-2.534,4.884-2.865,5.052-5.316,9.7-1.182,2.243-3.089,5.875-5.143,10.547-.432.986-.9,2.071-4.082,10.332-1.618,4.2-2.68,6.981-5.048,13.18-.3.8-.573,1.5-.825,2.159h38.853c.947-2.39,1.735-4.539,2.543-7,.942-2.874,1.821-5.556,2.729-9.276.617-2.522.9-4.113,1.8-7.437.616-2.281.968-3.337,1.686-5.716.417-1.383.543-1.841,3.6-12.815,1.4-5.043,2.127-7.6,3.151-9.478.825-1.512,1.346-2.114,2.786-4.766C1183.977,258,1183.685,256.859,1183.469,256.355Z" transform="translate(-545.244 -176.46)" fill="#5484aa" stroke="#1d1d1b" stroke-miterlimit="10" stroke-width="3"/>
      <path id="Path_74" data-name="Path 74" d="M1153.322,322.179c2.622-6.479,4.036-10.038,5.545-14.789.9-2.822,1.733-5.456,2.623-9.125.6-2.487.894-4.062,1.763-7.335.6-2.246.932-3.283,1.62-5.622.4-1.359.522-1.811,3.472-12.614,1.356-4.965,2.053-7.484,3-9.306.76-1.468,1.231-2.041,2.557-4.616.3-.579.555-1.1.79-1.586-1.9-1.01-3.8-2.039-5.707-3.027-1.688-.872-3.3-1.721-5.809-2.952a46.583,46.583,0,0,0-4.681-1.828c-2.038-.7-2.683-.8-3.292-.473-.976.519-1.285,1.814-1.731,3.977-1.185,5.735-1.221,7.274-1.906,9.747a61.8,61.8,0,0,1-2.424,5.941c-1.648,3.793-3.052,6.7-3.751,8.117-2.341,4.748-2.635,4.9-4.895,9.415-1.092,2.179-2.851,5.708-4.767,10.27-.4.962-.836,2.022-3.833,10.109-1.522,4.108-2.521,6.835-4.75,12.9l-.624,1.7Z" transform="translate(-545.023 -176.226)" fill="#6baee0"/>
      <path id="Path_75" data-name="Path 75" d="M1162.967,242.513l-1.244-27.805,28.918-22.9,7.172,35.214L1177.829,248.1Z" transform="translate(-542.262 -180.691)" fill="#d3aa4d" stroke="#1d1d1b" stroke-miterlimit="10" stroke-width="2"/>
      <path id="Path_76" data-name="Path 76" d="M1165.109,236.333l12.044,5.1,17-19.539-5.5-27.015-24.718,21.111Z" transform="translate(-542.089 -180.449)" fill="#f6ed85"/>
      <line id="Line_3" data-name="Line 3" x1="7.719" y2="21.322" transform="translate(640.02 11.621)" fill="none" stroke="#1d1d1b" stroke-miterlimit="10" stroke-width="2"/>
      <circle id="Ellipse_1" data-name="Ellipse 1" cx="6.168" cy="6.168" r="6.168" transform="translate(631.49 33.075)" fill="#fffbe0" stroke="#1d1d1b" stroke-miterlimit="10" stroke-width="2"/>
      <line id="Line_4" data-name="Line 4" x2="33.033" y2="12.771" transform="translate(589.03 116.747)" fill="none" stroke="#1d1d1b" stroke-miterlimit="10" stroke-width="3"/>
      <line id="Line_5" data-name="Line 5" x2="31.23" y2="11.733" transform="translate(593.161 108.327)" fill="none" stroke="#1d1d1b" stroke-miterlimit="10" stroke-width="3"/>
      <path id="Path_77" data-name="Path 77" d="M1134.949,289.888l3.3-6.672,28.882,10.879-1.694,7.472" transform="translate(-544.362 -173.521)" fill="#fff"/>
      <path id="Path_78" data-name="Path 78" d="M1111.883,328.07l4.046-84.2a3.012,3.012,0,0,0-2.865-3.153l-.2-.01a3.012,3.012,0,0,0-3.153,2.864l-4.06,84.494Z" transform="translate(-546.66 -176.855)" fill="#fdcd53" stroke="#1d1d1b" stroke-miterlimit="10" stroke-width="1"/>
      <path id="Path_79" data-name="Path 79" d="M1095.208,328.133l4.087-85.064a3.011,3.011,0,0,0-2.863-3.153l-.2-.01a3.012,3.012,0,0,0-3.153,2.864l-4.1,85.363Z" transform="translate(-547.968 -176.918)" fill="#fdcd53" stroke="#1d1d1b" stroke-miterlimit="10" stroke-width="1"/>
      <path id="Path_80" data-name="Path 80" d="M1184.643,306.736a25.933,25.933,0,0,1-8.954,7.072,25.447,25.447,0,0,1-5.687,1.875,104.879,104.879,0,0,1-19.156,2.123c-8.364.137-5.691.975-26.39,3.019-7.6.751-13.023,1.286-20.3,1.652a330.278,330.278,0,0,1-37.383-.37c-5.89-.38-10.758-.693-17.262-1.557a193.182,193.182,0,0,1-32.8-7.29" transform="translate(-553.636 -171.677)" fill="none" stroke="#1d1d1b" stroke-miterlimit="10" stroke-width="3"/>
      <path id="Path_81" data-name="Path 81" d="M1155.383,365.322" transform="translate(-542.76 -167.082)" fill="#94abd9" stroke="#1d1d1b" stroke-miterlimit="10" stroke-width="2"/>
      <path id="Path_82" data-name="Path 82" d="M1098.746,320.088" transform="translate(-547.202 -170.629)" fill="#94abd9" stroke="#1d1d1b" stroke-miterlimit="10" stroke-width="2"/>
      <path id="Path_83" data-name="Path 83" d="M1076.468,321.122q13.441-.726,27.122-1.331,13.31-.587,26.405-1.036" transform="translate(-548.949 -170.734)" fill="none" stroke="#1d1d1b" stroke-miterlimit="10" stroke-width="3"/>
      <path id="Path_84" data-name="Path 84" d="M1139.729,318.007l23.04-6.392" transform="translate(-543.987 -171.294)" fill="none" stroke="#1d1d1b" stroke-miterlimit="10" stroke-width="3"/>
    </g>
  </g>
</svg>
