<svg xmlns="http://www.w3.org/2000/svg" width="1923.267" height="2044.544" viewBox="0 0 1923.267 2044.544">
  <g id="Group_125" data-name="Group 125" transform="translate(0 -2208.456)">
    <rect id="Rectangle_226" data-name="Rectangle 226" width="1920" height="882" transform="translate(0 3371)" fill="#d7eef7"/>
    <g id="Group_64" data-name="Group 64" transform="translate(0 -213.553)">
      <path id="Path_148" data-name="Path 148" d="M0,1425c23.393,15.467,60.722,36.759,115.417,56.035,17.75,6.256,85.973,29.442,223.8,45.259,51.8,5.945,104.4,9.813,253.354,12.931,152.157,3.186,194.075,1.177,330.768,2.874,13.873.172,24.409.328,33.747.488,42.583.727,73.574,1.381,79.64,1.515,64.412,1.426,263.544,3.5,484.81,11.647,124.562,4.588,205.9,9.253,296.987,34.483,26.932,7.46,47.935,14.838,61.931,20.115,33.337,17.855,42.206,25.143,42.226,28.018v10.776c0,28.427.729,36.225,0,38.075-11.692,29.663-955.766-53.83-1742.513-45.259-76.8.837-139.694,2.415-180.163,3.592" transform="translate(0 997.009)" fill="#d7eef7"/>
      <path id="Path_211" data-name="Path 211" d="M-1607,2992.195a159.535,159.535,0,0,1,29.583-52.7c4.614-5.521,22.818-26.616,56.348-45.825,34.594-19.82,66.645-26.827,91.566-32.078,51.888-10.931,93.319-10.511,123.967-10.311,73.252.478,146.526-.306,219.759,1.146,34.785.69,32.771.29,202.854,0,252.29-.429,378.436-.644,418.387,0h0q108.119,0,216.237-.642c139.8-.6,168.511-.492,216.237-.5,98.852-.025,148.277-.037,149.323,0,0,0,25.684.917,64.8,0,61.972-1.452,76.093-5.968,85.931-10.311,5.905-2.606,36.376-16.055,45.079-41.243,1.793-5.19,2.134-13.389,2.817-29.786.711-17.1.241-29.52,0-37.806-.386-13.327-.651-32.377,0-56.136H-1607Z" transform="translate(1607 1232.347)" fill="#d7eef7"/>
    </g>
    <g id="Group_49" data-name="Group 49" transform="translate(0 -212.668)">
      <rect id="Rectangle_28" data-name="Rectangle 28" width="1923" height="1287" transform="translate(0 2632.668)" fill="#d7eef7"/>
    </g>
  </g>
</svg>
