<svg xmlns="http://www.w3.org/2000/svg" width="373" height="339" viewBox="0 0 373 339">
  <g id="Group_48" data-name="Group 48" transform="translate(-1038 -2859)">
    <ellipse id="Ellipse_9" data-name="Ellipse 9" cx="186.5" cy="40" rx="186.5" ry="40" transform="translate(1038 3118)" fill="#f9f4a3"/>
    <g id="Group_22" data-name="Group 22" transform="translate(1062.647 2859)">
      <rect id="Rectangle_29" data-name="Rectangle 29" width="324.524" height="251.531" rx="13.387" transform="translate(0)" fill="#22222d"/>
      <rect id="Rectangle_30" data-name="Rectangle 30" width="288.028" height="217.994" transform="translate(18.248 18.248)" fill="#3a3948"/>
      <rect id="Rectangle_31" data-name="Rectangle 31" width="28.605" height="202.211" transform="translate(17.755 34.524)" fill="#2e2d39"/>
      <rect id="Rectangle_32" data-name="Rectangle 32" width="288.521" height="17.755" transform="translate(17.755 18.248)" fill="#2e2d39"/>
      <rect id="Rectangle_33" data-name="Rectangle 33" width="4.932" height="200.238" transform="translate(46.854 36.003)" fill="#22222d"/>
      <rect id="Rectangle_34" data-name="Rectangle 34" width="12.823" height="7.891" transform="translate(26.14 216.514)" fill="#e8e7ec"/>
      <rect id="Rectangle_35" data-name="Rectangle 35" width="22.687" height="7.891" rx="1.678" transform="translate(54.745 201.718)" fill="#e7948d"/>
      <rect id="Rectangle_36" data-name="Rectangle 36" width="70.034" height="6.905" rx="1.702" transform="translate(65.595 187.908)" fill="#fef47f"/>
      <rect id="Rectangle_37" data-name="Rectangle 37" width="72.007" height="6.905" rx="1.709" transform="translate(149.439 187.908)" fill="#e7948d"/>
      <rect id="Rectangle_38" data-name="Rectangle 38" width="97.653" height="6.905" rx="1.786" transform="translate(118.861 173.113)" fill="#59c5f4"/>
      <rect id="Rectangle_39" data-name="Rectangle 39" width="45.374" height="6.905" rx="1.769" transform="translate(65.595 173.113)" fill="#e7948d"/>
      <rect id="Rectangle_40" data-name="Rectangle 40" width="72.993" height="5.918" rx="1.62" transform="translate(62.636 129.711)" fill="#e8e7ec"/>
      <rect id="Rectangle_41" data-name="Rectangle 41" width="46.361" height="5.918" rx="1.72" transform="translate(146.48 129.711)" fill="#e7948d"/>
      <rect id="Rectangle_42" data-name="Rectangle 42" width="46.361" height="5.918" rx="1.232" transform="translate(198.759 129.711)" fill="#6de8c3"/>
      <rect id="Rectangle_43" data-name="Rectangle 43" width="70.034" height="6.905" rx="1.583" transform="translate(142.534 115.901)" fill="#fef47f"/>
      <rect id="Rectangle_44" data-name="Rectangle 44" width="70.034" height="6.905" rx="1.643" transform="translate(62.636 115.901)" fill="#59c5f4"/>
      <rect id="Rectangle_45" data-name="Rectangle 45" width="70.034" height="4.932" rx="1.89" transform="translate(107.024 102.092)" fill="#59c5f4"/>
      <rect id="Rectangle_46" data-name="Rectangle 46" width="71.021" height="5.918" rx="1.694" transform="translate(113.929 86.31)" fill="#fef47f"/>
      <rect id="Rectangle_47" data-name="Rectangle 47" width="34.524" height="5.918" rx="1.927" transform="translate(192.84 86.31)" fill="#e7948d"/>
      <rect id="Rectangle_48" data-name="Rectangle 48" width="44.388" height="5.918" rx="1.527" transform="translate(62.636 86.31)" fill="#59c5f4"/>
      <rect id="Rectangle_49" data-name="Rectangle 49" width="21.701" height="5.918" rx="1.967" transform="translate(62.636 72.5)" fill="#fef47f"/>
      <rect id="Rectangle_50" data-name="Rectangle 50" width="33.537" height="5.918" rx="1.654" transform="translate(92.228 72.5)" fill="#59c5f4"/>
      <rect id="Rectangle_51" data-name="Rectangle 51" width="22.687" height="5.918" rx="1.745" transform="translate(54.745 57.704)" fill="#e7948d"/>
      <rect id="Rectangle_52" data-name="Rectangle 52" width="12.823" height="5.918" transform="translate(68.555 42.908)" fill="#e8e7ec"/>
      <circle id="Ellipse_6" data-name="Ellipse 6" cx="4.439" cy="4.439" r="4.439" transform="translate(51.786 22.194)" fill="#6de8c3"/>
      <circle id="Ellipse_7" data-name="Ellipse 7" cx="4.439" cy="4.439" r="4.439" transform="translate(26.14 22.194)" fill="#e7948d"/>
      <circle id="Ellipse_8" data-name="Ellipse 8" cx="4.439" cy="4.439" r="4.439" transform="translate(38.963 22.194)" fill="#fef47f"/>
      <rect id="Rectangle_53" data-name="Rectangle 53" width="22.687" height="7.891" rx="1.704" transform="translate(54.745 143.521)" fill="#59c5f4"/>
      <rect id="Rectangle_54" data-name="Rectangle 54" width="22.687" height="7.891" rx="1.569" transform="translate(54.745 158.317)" fill="#59c5f4"/>
      <rect id="Rectangle_55" data-name="Rectangle 55" width="22.687" height="5.918" rx="1.681" transform="translate(63.623 101.599)" fill="#e7948d"/>
      <rect id="Rectangle_56" data-name="Rectangle 56" width="12.823" height="7.891" transform="translate(26.14 41.922)" fill="#e8e7ec"/>
      <rect id="Rectangle_57" data-name="Rectangle 57" width="12.823" height="7.891" transform="translate(26.14 55.731)" fill="#e8e7ec"/>
      <rect id="Rectangle_58" data-name="Rectangle 58" width="12.823" height="7.891" transform="translate(26.14 71.514)" fill="#e8e7ec"/>
      <rect id="Rectangle_59" data-name="Rectangle 59" width="12.823" height="7.891" transform="translate(26.14 85.323)" fill="#e8e7ec"/>
      <rect id="Rectangle_60" data-name="Rectangle 60" width="12.823" height="7.891" transform="translate(26.14 100.119)" fill="#e8e7ec"/>
      <rect id="Rectangle_61" data-name="Rectangle 61" width="12.823" height="7.891" transform="translate(26.14 114.915)" fill="#e8e7ec"/>
      <rect id="Rectangle_62" data-name="Rectangle 62" width="12.823" height="7.891" transform="translate(26.14 128.725)" fill="#e8e7ec"/>
      <rect id="Rectangle_63" data-name="Rectangle 63" width="12.823" height="7.891" transform="translate(26.14 144.507)" fill="#e8e7ec"/>
      <rect id="Rectangle_64" data-name="Rectangle 64" width="12.823" height="7.891" transform="translate(26.14 158.317)" fill="#e8e7ec"/>
      <rect id="Rectangle_65" data-name="Rectangle 65" width="12.823" height="7.891" transform="translate(26.14 172.126)" fill="#e8e7ec"/>
      <rect id="Rectangle_66" data-name="Rectangle 66" width="12.823" height="7.891" transform="translate(26.14 187.908)" fill="#e8e7ec"/>
      <rect id="Rectangle_67" data-name="Rectangle 67" width="12.823" height="7.891" transform="translate(26.14 201.718)" fill="#e8e7ec"/>
      <path id="Path_135" data-name="Path 135" d="M807.786,2483.891l-3.946,3.945-.986.987,4.932,4.932" transform="translate(-745.15 -2268.363)" fill="none" stroke="#e0d6ea" stroke-miterlimit="10" stroke-width="1"/>
      <path id="Path_136" data-name="Path 136" d="M825.456,2483.891l4.932,4.932-4.932,4.932" transform="translate(-742.105 -2268.363)" fill="none" stroke="#e0d6ea" stroke-miterlimit="10" stroke-width="1"/>
      <line id="Line_6" data-name="Line 6" y1="8.878" x2="8.878" transform="translate(68.555 215.528)" fill="none" stroke="#e0d6ea" stroke-miterlimit="10" stroke-width="1"/>
      <path id="Path_137" data-name="Path 137" d="M831.17,2329.788l4.932,4.932-4.932,4.932" transform="translate(-741.336 -2289.12)" fill="none" stroke="#e0d6ea" stroke-miterlimit="10" stroke-width="1"/>
      <path id="Path_138" data-name="Path 138" d="M807.723,2329.788l-3.946,3.946-.986.986,4.932,4.932" transform="translate(-745.158 -2289.12)" fill="none" stroke="#e0d6ea" stroke-miterlimit="10" stroke-width="1"/>
      <rect id="Rectangle_68" data-name="Rectangle 68" width="90.748" height="43.401" transform="translate(116.395 247.585)" fill="#22222d"/>
      <rect id="Rectangle_69" data-name="Rectangle 69" width="167.687" height="11.837" rx="1.714" transform="translate(77.925 282.109)" fill="#22222d"/>
    </g>
  </g>
</svg>
