<svg xmlns="http://www.w3.org/2000/svg" width="350.966" height="458.764" viewBox="0 0 350.966 458.764">
  <g id="Group_124" data-name="Group 124" transform="translate(-1311.099 -429.335)">
    <g id="Group_91" data-name="Group 91" transform="translate(1311.599 429.835)">
      <rect id="Rectangle_198" data-name="Rectangle 198" width="328.032" height="437.282" transform="translate(22.434 20.982)" fill="#111324" opacity="0.43"/>
      <path id="Path_368" data-name="Path 368" d="M2956.183,2301.721" transform="translate(-2895.799 -2189.253)" fill="#d7eef7"/>
      <rect id="Rectangle_199" data-name="Rectangle 199" width="332.928" height="435.605" transform="translate(0)" fill="#fff" stroke="#707070" stroke-width="1"/>
      <rect id="Rectangle_200" data-name="Rectangle 200" width="150.144" height="25.951" transform="translate(145.248 34.525)" fill="#4da0db"/>
      <rect id="Rectangle_201" data-name="Rectangle 201" width="39.971" height="8.106" transform="translate(146.478 67.958)" fill="#4da0db"/>
      <rect id="Rectangle_202" data-name="Rectangle 202" width="122.689" height="26.647" transform="translate(31.949 173.282)" fill="#4da0db"/>
      <rect id="Rectangle_203" data-name="Rectangle 203" width="122.989" height="8.882" transform="translate(172.403 173.282)" fill="#4da0db"/>
      <rect id="Rectangle_204" data-name="Rectangle 204" width="122.989" height="24.427" transform="translate(172.403 284.313)" fill="#4da0db"/>
      <ellipse id="Ellipse_30" data-name="Ellipse 30" cx="28.729" cy="28.729" rx="28.729" ry="28.729" transform="translate(31.949 337.608)" fill="#4da0db"/>
      <rect id="Rectangle_205" data-name="Rectangle 205" width="187.387" height="10.548" transform="translate(108.005 352.042)" fill="#e6e6e7"/>
      <rect id="Rectangle_206" data-name="Rectangle 206" width="187.387" height="11.103" transform="translate(108.005 369.807)" fill="#e6e6e7"/>
      <rect id="Rectangle_207" data-name="Rectangle 207" width="126.02" height="12.213" transform="translate(28.618 284.313)" fill="#e6e6e7"/>
      <rect id="Rectangle_208" data-name="Rectangle 208" width="96.341" height="8.882" transform="translate(199.051 148.855)" fill="#e6e6e7"/>
      <rect id="Rectangle_209" data-name="Rectangle 209" width="122.989" height="11.103" transform="translate(172.403 215.473)" fill="#e6e6e7"/>
      <rect id="Rectangle_210" data-name="Rectangle 210" width="126.02" height="12.213" transform="translate(28.618 212.444)" fill="#e6e6e7"/>
      <rect id="Rectangle_211" data-name="Rectangle 211" width="126.02" height="12.213" transform="translate(28.618 237.171)" fill="#e6e6e7"/>
      <rect id="Rectangle_212" data-name="Rectangle 212" width="126.02" height="12.213" transform="translate(28.618 260.742)" fill="#e6e6e7"/>
      <rect id="Rectangle_213" data-name="Rectangle 213" width="122.989" height="11.103" transform="translate(172.403 196.876)" fill="#e6e6e7"/>
      <rect id="Rectangle_214" data-name="Rectangle 214" width="122.989" height="11.103" transform="translate(172.403 234.071)" fill="#e6e6e7"/>
      <rect id="Rectangle_215" data-name="Rectangle 215" width="122.989" height="11.103" transform="translate(172.403 259.192)" fill="#e6e6e7"/>
      <rect id="Rectangle_216" data-name="Rectangle 216" width="96.341" height="8.882" transform="translate(199.051 131.09)" fill="#e6e6e7"/>
      <rect id="Rectangle_217" data-name="Rectangle 217" width="96.341" height="8.882" transform="translate(199.051 67.57)" fill="#e6e6e7"/>
      <rect id="Rectangle_218" data-name="Rectangle 218" width="96.341" height="8.882" transform="translate(199.051 83.547)" fill="#e6e6e7"/>
      <rect id="Rectangle_219" data-name="Rectangle 219" width="96.341" height="8.882" transform="translate(199.051 100.224)" fill="#e6e6e7"/>
      <rect id="Rectangle_220" data-name="Rectangle 220" width="39.971" height="8.106" transform="translate(146.478 83.935)" fill="#4da0db"/>
    </g>
    <text id="CV" transform="translate(1354.41 508.712)" fill="#15546c" font-size="46" font-family="Poppins-Medium, Poppins" font-weight="500"><tspan x="0" y="0">CV</tspan></text>
  </g>
</svg>
