<svg xmlns="http://www.w3.org/2000/svg" width="1920.267" height="1173.186" viewBox="0 0 1920.267 1173.186">
  <g id="Group_65" data-name="Group 65" transform="translate(0 -2422.009)">
    <rect id="Rectangle_28" data-name="Rectangle 28" width="1920" height="664" transform="translate(0 2633)" fill="#f9f4c5"/>
    <g id="Group_64" data-name="Group 64">
      <path id="Path_148" data-name="Path 148" d="M0,1425c23.357,15.467,60.627,36.759,115.237,56.035,17.723,6.256,85.839,29.442,223.447,45.259,51.719,5.945,104.239,9.813,252.959,12.931,151.92,3.186,193.772,1.177,330.252,2.874,13.851.172,24.371.328,33.694.488,42.517.727,73.459,1.381,79.516,1.515,64.312,1.426,263.133,3.5,484.054,11.647,124.367,4.588,205.578,9.253,296.524,34.483,26.89,7.46,47.86,14.838,61.834,20.115,33.285,17.855,42.14,25.143,42.16,28.018v10.776c0,28.427.728,36.225,0,38.075-11.674,29.663-954.275-53.83-1739.795-45.259-76.683.837-139.476,2.415-179.882,3.592" transform="translate(0 997.009)" fill="#f9f4c5"/>
      <path id="Path_211" data-name="Path 211" d="M-1607,2992.195a159.611,159.611,0,0,1,29.537-52.7c4.606-5.521,22.783-26.616,56.26-45.825,34.54-19.82,66.541-26.827,91.424-32.078,51.807-10.931,93.173-10.511,123.773-10.311,73.137.478,146.3-.306,219.416,1.146,34.731.69,32.72.29,202.538,0,251.9-.429,377.846-.644,417.735,0h0q107.951,0,215.9-.642c139.578-.6,168.249-.492,215.9-.5,98.7-.025,148.045-.037,149.091,0,0,0,25.644.917,64.7,0,61.875-1.452,75.974-5.968,85.8-10.311,5.9-2.606,36.319-16.055,45.008-41.243,1.79-5.19,2.131-13.389,2.813-29.786.71-17.1.241-29.52,0-37.806-.385-13.327-.65-32.377,0-56.136H-1607Z" transform="translate(1607 603)" fill="#f9f4c5"/>
    </g>
  </g>
</svg>
