<svg xmlns="http://www.w3.org/2000/svg" width="1920" height="1649.991" viewBox="0 0 1920 1649.991">
  <g id="Group_49" data-name="Group 49" transform="translate(0 -2422.009)">
    <rect id="Rectangle_28" data-name="Rectangle 28" width="1920" height="1439" transform="translate(0 2633)" fill="#f9f4c5"/>
    <path id="Path_148" data-name="Path 148" d="M0,1425c23.357,15.467,60.627,36.759,115.237,56.035,17.723,6.256,85.839,29.442,223.447,45.259,51.719,5.945,104.239,9.813,252.959,12.931,151.92,3.186,193.772,1.177,330.252,2.874,13.851.172,24.371.328,33.694.488,42.517.727,73.459,1.381,79.516,1.515,64.312,1.426,263.133,3.5,484.054,11.647,124.367,4.588,205.578,9.253,296.524,34.483,26.89,7.46,47.86,14.838,61.834,20.115,33.285,17.855,42.14,25.143,42.16,28.018v10.776c0,28.427.728,36.225,0,38.075-11.674,29.663-954.275-53.83-1739.795-45.259-76.683.837-139.476,2.415-179.882,3.592" transform="translate(0 997.009)" fill="#f9f4c5"/>
  </g>
</svg>
